<?xml version="1.0" encoding="utf-8"?>
<!DOCTYPE svg PUBLIC "-//W3C//DTD SVG 20010904//EN" "http://www.w3.org/TR/2001/REC-SVG-20010904/DTD/svg10.dtd">
<svg height="531.000000pt" preserveAspectRatio="xMidYMid meet" version="1.0" viewBox="0 0 517.000000 531.000000" width="517.000000pt" xmlns="http://www.w3.org/2000/svg">
 <g fill="#000000" stroke="none" transform="translate(0.000000,531.000000) scale(0.100000,-0.100000)">
  <path d="M1870 4776 c-97 -34 -180 -71 -325 -144 -71 -35 -187 -91 -257 -122 -148 -68 -253 -133 -309 -193 -22 -23 -72 -93 -111 -156 -39 -62 -194 -298 -344 -523 -254 -379 -274 -412 -274 -453 0 -37 5 -47 38 -76 43 -38 204 -143 422 -277 85 -52 189 -118 230 -146 93 -63 127 -66 196 -17 59 41 65 33 59 -79 -2 -47 -7 -182 -10 -300 -10 -387 -24 -821 -35 -1055 -17 -381 -30 -869 -24 -892 14 -51 67 -62 474 -97 270 -23 406 -27 997 -27 596 1 818 9 1163 41 248 23 276 29 311 66 23 25 24 30 22 162 -2 75 -5 191 -8 257 -3 66 -12 354 -21 640 -8 286 -19 639 -24 785 -5 146 -10 327 -10 404 l0 138 33 -24 c42 -33 92 -58 113 -58 9 0 58 26 108 59 50 32 168 105 261 161 181 110 301 190 376 252 53 43 66 82 45 131 -7 18 -112 181 -233 362 -121 182 -268 403 -327 493 -58 90 -130 188 -158 218 -59 63 -159 132 -244 170 -33 15 -169 80 -304 144 -135 65 -288 133 -341 151 l-96 33 -90 -27 c-128 -40 -229 -55 -436 -67 -272 -16 -507 5 -679 61 -49 16 -97 29 -106 28 -9 0 -46 -10 -82 -23z m28 -138 c3 -13 25 -62 48 -109 121 -241 373 -389 665 -389 216 0 414 90 545 248 55 67 119 186 131 242 3 19 12 30 22 30 19 0 121 -46 121 -55 0 -3 -16 -38 -36 -78 -114 -228 -262 -376 -452 -453 -124 -50 -178 -59 -342 -58 -139 0 -164 3 -244 28 -187 57 -333 155 -444 299 -46 60 -142 236 -142 260 0 10 86 53 113 56 5 1 12 -9 15 -21z m949 -44 c-3 -3 -12 -4 -19 -1 -8 3 -5 6 6 6 11 1 17 -2 13 -5z m-1166 -76 c22 -55 107 -199 151 -255 123 -160 272 -263 465 -323 98 -30 183 -41 322 -41 165 1 284 25 406 84 198 97 320 222 455 470 30 53 59 97 66 97 6 0 68 -29 135 -64 68 -34 156 -73 194 -86 39 -12 102 -39 140 -58 123 -63 171 -122 486 -597 157 -236 295 -446 306 -466 11 -20 28 -47 37 -61 l17 -25 -108 -70 c-59 -38 -162 -103 -228 -143 -66 -41 -173 -109 -239 -153 l-119 -79 -70 73 -71 74 -4 370 c-2 211 -8 378 -14 388 -7 13 -19 17 -46 15 -60 -5 -66 -28 -70 -278 -2 -118 3 -424 12 -680 9 -256 23 -663 31 -905 8 -242 22 -604 30 -805 8 -201 15 -417 15 -482 l0 -116 -37 -6 c-99 -16 -362 -36 -590 -47 -371 -16 -1495 -7 -1761 15 -111 10 -237 23 -280 29 l-77 12 3 225 c2 124 10 369 17 545 14 306 24 550 45 1135 5 146 15 387 21 535 6 149 9 383 7 522 -4 214 -7 255 -22 277 -20 31 -65 35 -92 9 -16 -16 -17 -39 -11 -260 6 -248 -4 -457 -24 -496 -6 -12 -38 -50 -71 -83 l-60 -61 -106 71 c-59 39 -213 136 -342 215 -129 80 -237 146 -239 147 -6 5 71 126 318 499 134 204 268 407 298 452 29 45 76 102 104 127 64 58 177 120 254 140 33 8 118 45 190 81 71 36 132 65 136 65 4 0 13 -15 20 -32z"/>
 </g>
</svg>
