<?xml version="1.0" encoding="utf-8"?>
<!DOCTYPE svg PUBLIC "-//W3C//DTD SVG 20010904//EN" "http://www.w3.org/TR/2001/REC-SVG-20010904/DTD/svg10.dtd">
<svg height="541.000000pt" preserveAspectRatio="xMidYMid meet" version="1.0" viewBox="0 0 506.000000 541.000000" width="506.000000pt" xmlns="http://www.w3.org/2000/svg">
 <g fill="#000000" stroke="none" transform="translate(0.000000,541.000000) scale(0.100000,-0.100000)">
  <path d="M1955 5256 c-153 -25 -236 -94 -309 -260 -16 -37 -31 -56 -42 -56 -42 0 -497 -224 -644 -318 -82 -52 -189 -167 -232 -247 -87 -168 -127 -290 -253 -790 -111 -439 -210 -906 -254 -1195 -12 -74 -27 -178 -35 -230 -9 -52 -29 -210 -45 -351 -17 -141 -36 -278 -43 -305 -7 -30 -12 -132 -13 -259 -1 -141 -8 -252 -20 -337 -20 -143 -16 -159 47 -197 61 -38 316 -84 529 -96 164 -10 160 -15 233 279 16 61 29 92 42 99 10 6 22 15 27 21 13 20 24 -13 30 -92 3 -48 14 -96 28 -127 20 -46 21 -58 15 -181 -6 -122 -5 -133 14 -157 30 -37 61 -44 310 -67 370 -33 541 -41 1040 -47 495 -6 705 1 1183 37 297 23 385 39 430 80 l32 28 6 159 c5 119 28 387 39 443 0 3 9 -13 19 -35 10 -22 28 -47 39 -57 11 -9 23 -35 27 -60 11 -70 65 -261 81 -286 25 -38 53 -42 218 -32 188 12 391 51 457 87 74 40 81 62 62 208 -10 74 -15 181 -14 281 1 104 -3 195 -13 255 -8 52 -27 193 -41 314 -91 763 -170 1189 -355 1900 -138 534 -208 704 -339 836 -36 36 -86 79 -111 96 -70 48 -283 157 -415 213 -66 28 -160 69 -210 91 l-90 40 -43 90 c-28 56 -63 109 -95 143 -87 91 -74 89 -687 92 -389 2 -546 -1 -605 -10z m1038 -158 c-3 -29 -15 -76 -28 -104 -26 -59 -21 -57 -200 -74 -201 -19 -650 -3 -696 25 -23 15 -49 91 -49 148 l0 57 489 0 488 0 -4 -52z m-1081 -46 c3 -78 6 -94 33 -135 53 -81 171 -230 266 -335 50 -57 90 -104 88 -106 -2 -2 -15 -9 -29 -16 -14 -7 -100 -60 -193 -117 -92 -57 -172 -101 -178 -97 -14 8 -100 192 -134 287 -34 93 -65 222 -65 270 0 33 28 105 93 235 12 26 92 102 106 102 5 0 11 -40 13 -88z m1278 -2 c11 -16 34 -61 50 -99 15 -38 38 -83 51 -100 l22 -30 -17 -88 c-9 -48 -28 -120 -42 -160 -30 -88 -138 -318 -153 -328 -15 -9 -390 220 -391 238 0 4 19 29 43 55 61 66 227 268 270 328 49 69 74 127 82 196 l7 58 29 -21 c15 -11 38 -33 49 -49z m-815 -254 c88 -3 223 -2 300 2 77 5 143 7 147 5 7 -4 -57 -79 -224 -265 -33 -37 -67 -76 -75 -87 -13 -20 -17 -17 -102 72 -119 124 -241 265 -241 278 0 6 8 8 18 5 9 -2 89 -7 177 -10z m-785 -68 c24 -151 56 -247 141 -426 60 -129 88 -167 134 -182 52 -17 77 -5 311 141 114 71 212 128 218 126 12 -4 41 -52 50 -82 4 -15 -2 -24 -25 -37 l-30 -17 3 -108 3 -108 32 -15 33 -15 0 -1602 0 -1603 -32 0 c-285 3 -963 22 -1093 30 -181 11 -229 21 -240 48 -28 72 -33 706 -10 1186 20 413 44 1103 52 1458 5 258 4 289 -11 312 -11 18 -25 26 -46 26 -55 0 -57 -10 -64 -395 -5 -324 -38 -1179 -51 -1305 -3 -30 -10 -185 -15 -343 l-11 -288 -50 -207 c-28 -114 -53 -216 -56 -226 -5 -18 -13 -18 -127 -12 -224 13 -469 58 -497 92 -35 42 62 845 172 1424 87 457 265 1203 347 1456 120 365 180 427 627 645 110 54 205 98 212 98 6 1 16 -29 23 -71z m2013 -14 c364 -161 527 -272 609 -414 37 -63 101 -227 137 -351 70 -242 211 -841 275 -1174 92 -475 186 -1160 202 -1471 7 -121 7 -122 -17 -137 -13 -9 -51 -23 -84 -32 -124 -32 -486 -66 -513 -47 -7 5 -39 112 -72 238 l-58 229 -21 379 c-12 208 -26 530 -31 715 -5 185 -12 379 -15 431 -3 52 -7 241 -10 418 -3 289 -6 326 -21 343 -21 23 -61 25 -86 2 -16 -15 -18 -35 -18 -217 0 -251 25 -1051 46 -1456 15 -315 21 -1096 9 -1214 -10 -95 -21 -105 -130 -116 -90 -9 -545 -25 -1002 -35 l-243 -5 0 1604 0 1604 25 6 c33 8 45 41 45 126 0 83 -12 117 -45 130 -27 10 -26 21 10 91 20 37 19 37 132 -39 139 -94 299 -189 338 -202 47 -16 97 1 130 44 33 43 147 284 173 366 33 102 52 185 52 224 0 20 2 36 5 36 3 0 83 -34 178 -76z m-1065 -556 c3 -37 2 -38 -30 -38 -32 0 -33 1 -31 37 1 21 2 39 2 41 1 2 13 2 29 0 23 -3 27 -8 30 -40z m-2301 -3119 c57 -22 272 -60 399 -71 l132 -12 -24 -90 c-38 -145 -22 -133 -160 -123 -140 9 -339 41 -387 61 l-35 14 15 53 c7 30 16 82 20 117 3 34 7 62 9 62 1 0 15 -5 31 -11z m4593 -42 c0 -23 7 -73 15 -111 12 -55 12 -72 2 -78 -27 -17 -190 -48 -307 -58 -69 -5 -144 -12 -167 -14 l-43 -4 -24 77 c-13 42 -27 93 -31 112 l-7 36 137 11 c119 10 328 48 389 72 30 11 36 4 36 -43z m-3327 -263 c147 -9 422 -19 610 -22 l342 -7 3 -124 3 -124 -283 7 c-460 10 -990 42 -1041 62 -25 9 -35 108 -20 197 l6 39 56 -6 c31 -3 177 -13 324 -22z m2400 -195 c-23 -23 -418 -54 -937 -74 -214 -8 -392 -12 -397 -9 -5 3 -9 61 -9 130 l0 124 254 0 c289 0 739 16 949 33 l142 12 3 -104 c1 -57 -1 -108 -5 -112z"/>
  <path d="M1294 2122 c-29 -19 -32 -60 -35 -499 -4 -443 -4 -452 17 -479 11 -15 38 -37 60 -48 37 -20 55 -21 344 -21 301 0 306 0 353 24 30 15 58 39 75 64 l27 41 0 446 c0 364 -3 450 -14 463 -12 15 -54 17 -415 17 -220 0 -406 -4 -412 -8z m727 -102 c16 -9 19 -22 19 -95 l0 -85 -335 0 -335 0 0 89 c0 62 4 91 13 94 25 11 618 7 638 -3z m19 -492 c-1 -117 -5 -233 -9 -258 -16 -81 -12 -80 -346 -80 -252 0 -294 2 -305 16 -10 11 -15 83 -18 275 l-5 259 342 0 341 0 0 -212z"/>
  <path d="M2886 2108 c-14 -20 -16 -80 -16 -453 0 -427 0 -431 23 -475 24 -50 70 -85 130 -101 25 -6 146 -9 331 -7 l291 3 46 27 c26 15 50 35 55 45 10 22 18 818 9 891 -12 97 15 92 -449 92 l-405 0 -15 -22z m754 -98 c5 -8 10 -50 10 -92 l0 -78 -340 0 -340 0 0 69 c0 38 5 82 10 96 l10 26 320 -3 c272 -3 322 -5 330 -18z m5 -322 c4 -29 5 -149 3 -266 -2 -176 -6 -214 -18 -222 -9 -6 -141 -10 -306 -10 -272 0 -293 1 -315 19 -24 19 -24 21 -29 275 l-5 256 332 0 332 0 6 -52z"/>
 </g>
</svg>
