<?xml version="1.0" encoding="utf-8"?>
<!DOCTYPE svg PUBLIC "-//W3C//DTD SVG 20010904//EN" "http://www.w3.org/TR/2001/REC-SVG-20010904/DTD/svg10.dtd">
<svg height="544.000000pt" preserveAspectRatio="xMidYMid meet" version="1.0" viewBox="0 0 354.000000 544.000000" width="354.000000pt" xmlns="http://www.w3.org/2000/svg">
 <g fill="#000000" stroke="none" transform="translate(0.000000,544.000000) scale(0.100000,-0.100000)">
  <path d="M494 5262 c-46 -7 -56 -33 -66 -174 -5 -73 -18 -241 -29 -373 -54 -657 -63 -1018 -56 -2420 6 -1215 24 -1961 49 -2013 7 -15 25 -32 39 -39 39 -19 454 -44 723 -44 221 0 242 1 265 19 l26 19 41 504 c71 860 116 1323 189 1934 44 375 70 566 82 615 6 23 7 21 14 -15 36 -174 138 -1077 204 -1795 8 -91 20 -208 25 -260 5 -52 21 -230 35 -395 14 -165 30 -358 36 -430 13 -151 19 -172 54 -185 53 -20 868 -2 958 21 65 17 65 18 77 389 30 967 30 2328 0 3080 -19 471 -30 712 -41 840 -5 69 -18 251 -29 405 -18 247 -22 281 -39 299 -19 19 -47 19 -1278 20 -692 1 -1268 0 -1279 -2z"/>
 </g>
</svg>
